<svg xmlns="http://www.w3.org/2000/svg" viewBox="0 0 64 64">
  <!-- Krígl piva -->
  <g transform="translate(2,8)">
    <path d="M6,2 L3,48 L27,48 L24,2 Z" fill="#f5c842" stroke="#c67b3c" stroke-width="2"/>
    <rect x="6" y="2" width="18" height="10" rx="2" fill="#fff8e0" opacity="0.7"/>
    <line x1="6" y1="14" x2="24" y2="14" stroke="#c67b3c" stroke-width="1" opacity="0.4"/>
    <line x1="5" y1="26" x2="25" y2="26" stroke="#c67b3c" stroke-width="1" opacity="0.4"/>
    <path d="M24,10 Q34,10 34,22 Q34,32 24,32" fill="none" stroke="#c67b3c" stroke-width="3"/>
    <ellipse cx="9" cy="2" rx="5" ry="4" fill="#fff8e0"/>
    <ellipse cx="18" cy="1" rx="6" ry="5" fill="#fff8e0"/>
    <ellipse cx="25" cy="2" rx="4" ry="3.5" fill="#fff8e0"/>
  </g>
  <!-- Kojenecká lahvička s dudlíkem -->
  <g transform="translate(36,12)">
    <!-- Dudlík nahoře -->
    <ellipse cx="13" cy="4" rx="4" ry="4" fill="#f5a0b0" stroke="#d4708a" stroke-width="1.2"/>
    <rect x="9" y="7" width="8" height="4" rx="1" fill="#f5a0b0" stroke="#d4708a" stroke-width="1"/>
    <!-- Kroužek -->
    <rect x="7" y="10" width="12" height="5" rx="2" fill="#7ec8e3" stroke="#5ba3c9" stroke-width="1.2"/>
    <!-- Tělo lahvičky -->
    <path d="M7,15 L5,44 Q5,48 9,48 L17,48 Q21,48 21,44 L19,15 Z" fill="#f0f5ff" stroke="#b0c4de" stroke-width="1.5"/>
    <!-- Rysky na lahvi -->
    <line x1="8" y1="22" x2="18" y2="22" stroke="#b0c4de" stroke-width="0.7" opacity="0.6"/>
    <line x1="7" y1="30" x2="19" y2="30" stroke="#b0c4de" stroke-width="0.7" opacity="0.6"/>
    <line x1="7" y1="38" x2="19" y2="38" stroke="#b0c4de" stroke-width="0.7" opacity="0.6"/>
    <!-- Mléko uvnitř -->
    <path d="M6,32 L5,44 Q5,48 9,48 L17,48 Q21,48 21,44 L20,32 Z" fill="#fff" opacity="0.8"/>
  </g>
</svg>
